<svg class="border shadow-md dark:border-slate-700" viewBox="0 0 902 507.375" style="width: 902px; height: 507.375px;" xmlns="http://www.w3.org/2000/svg" preserveAspectRatio="none"><rect class="bg" id="bg" x="0" y="0" width="902" height="507.375" fill="#ffffff"></rect><g transform="rotate(0 258.72 258.72)"><path id="-1" d="M -358.72 -21.74 S -189.36 -47.62
            0.00 -21.74 169.36 -61.74
            358.72 -21.74 435.44 -47.74
            717.44 -21.74 886.80 -64.74
            1076.16 -21.74 h 110 V 717.44 H -358.72 Z" fill="#2076AC"></path><path id="0" d="M -358.72 30.00 S -189.36 -2.00
            0.00 30.00 91.72 4.13
            358.72 30.00 528.08 4.13
            717.44 30.00 886.80 4.13
            1076.16 30.00 h 110 V 717.44 H -358.72 Z" fill="#2b7ca3"></path><path id="1" d="M -358.72 81.74 S -189.36 30.74
            0.00 81.74 160.72 54.74
            358.72 81.74 470.44 55.87
            717.44 81.74 818.16 55.87
            1076.16 81.74 h 110 V 717.44 H -358.72 Z" fill="#36829a"></path><path id="2" d="M -358.72 133.49 S -189.36 102.49
            0.00 133.49 169.36 107.62
            358.72 133.49 528.08 107.62
            717.44 133.49 798.16 94.49
            1076.16 133.49 h 110 V 717.44 H -358.72 Z" fill="#418891"></path><path id="3" d="M -358.72 185.23 S -272.00 137.23
            0.00 185.23 24.72 159.36
            358.72 185.23 528.08 159.36
            717.44 185.23 886.80 159.36
            1076.16 185.23 h 110 V 717.44 H -358.72 Z" fill="#4c8e88"></path><path id="4" d="M -358.72 236.98 S -334.00 194.98
            0.00 236.98 169.36 211.10
            358.72 236.98 403.44 211.10
            717.44 236.98 876.16 211.10
            1076.16 236.98 h 110 V 717.44 H -358.72 Z" fill="#57947f"></path><path id="5" d="M -358.72 288.72 S -189.36 262.85
            0.00 288.72 169.36 262.85
            358.72 288.72 528.08 262.85
            717.44 288.72 886.80 244.72
            1076.16 288.72 h 110 V 717.44 H -358.72 Z" fill="#629a76"></path><path id="6" d="M -358.72 340.46 S -189.36 314.59
            0.00 340.46 169.36 314.59
            358.72 340.46 528.08 314.59
            717.44 340.46 815.16 308.46
            1076.16 340.46 h 110 V 717.44 H -358.72 Z" fill="#6da06d"></path><path id="7" d="M -358.72 392.21 S -241.00 341.21
            0.00 392.21 169.36 345.21
            358.72 392.21 508.44 362.21
            717.44 392.21 886.80 366.34
            1076.16 392.21 h 110 V 717.44 H -358.72 Z" fill="#78a664"></path><path id="8" d="M -358.72 443.95 S -318.00 418.08
            0.00 443.95 169.36 403.95
            358.72 443.95 384.44 418.08
            717.44 443.95 860.16 418.08
            1076.16 443.95 h 110 V 717.44 H -358.72 Z" fill="#83ac5b"></path><path id="9" d="M -358.72 495.70 S -239.00 469.82
            0.00 495.70 132.72 456.70
            358.72 495.70 519.44 469.82
            717.44 495.70 886.80 469.82
            1076.16 495.70 h 110 V 717.44 H -358.72 Z" fill="#8eb252"></path></g></svg>